{"title":"The Night Of Part 5 720p HDTV HEVC 2CH x265","uid":15513101,"size":474428295,"categoryP":"video","categoryS":"hd___tv_shows","magnet":"?xt=urn:btih:d97dbc1a025e56a6b67456701e61eb9e0b53752e&amp;dn=The+Night+Of+Part+5+720p+HDTV+HEVC+2CH+x265&amp;tr=udp%3A%2F%2Ftracker.leechers-paradise.org%3A6969&amp;tr=udp%3A%2F%2Fzer0day.ch%3A1337&amp;tr=udp%3A%2F%2Fopen.demonii.com%3A1337&amp;tr=udp%3A%2F%2Ftracker.coppersurfer.tk%3A6969&amp;tr=udp%3A%2F%2Fexodus.desync.com%3A6969","seeders":1,"leechers":0,"uploader":"nayhtut","files":1,"time":1470674154,"description":"[Screenshots]\r\n \nhttps://s10.postimg.org/6v5ny78l5/The_Night_Of_Part_5_720p_HDTV_HEVC_2_CH_x265_006.jpg \nhttps://s10.postimg.org/m55j5e43d/The_Night_Of_Part_5_720p_HDTV_HEVC_2_CH_x265_011.jpg \nhttps://s10.postimg.org/xis2glem1/The_Night_Of_Part_5_720p_HDTV_HEVC_2_CH_x265_008.jpg\r\n\r\n\r\nSource: The Night Of Part 5 720p HDTV x264-BATV (1017.9 MB)\r\n\r\n\r\n__--__--__--__--__--__--__--__--__--__--__--__--__--\r\n\r\n\r\nComplete name                            : The.Night.Of.Part.5.720p.HDTV.HEVC.2CH.x265.mkv\r\nFormat                                   : Matroska\r\nFormat version                           : Version 4 / Version 2\r\nFile size                                : 452 MiB\r\nDuration                                 : 59 min\r\nOverall bit rate                         : 1 061 kb/s\r\nWriting application                      : Lavf57.25.100\r\nWriting library                          : Lavf57.25.100 / Lavf57.25.100\r\n\r\nVideo\r\n\r\nID                                       : 1\r\nFormat                                   : HEVC\r\nFormat/Info                              : High Efficiency Video Coding\r\nFormat profile                           :   @Main\r\nCodec ID                                 : V_MPEGH/ISO/HEVC\r\nDuration                                 : 59 min\r\nBit rate                                 : 848 kb/s\r\nWidth                                    : 1 280 pixels\r\nHeight                                   : 716 pixels\r\nDisplay aspect ratio                     : 16:9\r\nFrame rate mode                          : Constant\r\nFrame rate                               : 25.000 FPS\r\nColor space                              : YUV\r\nChroma subsampling                       : 4:2:0\r\nBit depth                                : 8 bits\r\nBits/(Pixel*Frame)                       : 0.037\r\nStream size                              : 362 MiB (80%)\r\nWriting library                          : x265 2.0+1-6a9b6a828f79:[Linux][GCC 5.4.0][64 bit] 8bit\r\nDefault                                  : Yes\r\nForced                                   : No\r\nDURATION                                 : 00:59:36.731000000\r\n\r\nAudio\r\n\r\nID                                       : 2\r\nFormat                                   : AC-3\r\nFormat/Info                              : Audio Coding 3\r\nMode extension                           : CM (complete main)\r\nFormat settings, Endianness              : Big\r\nCodec ID                                 : A_AC3\r\nDuration                                 : 59 min\r\nBit rate mode                            : Constant\r\nBit rate                                 : 192 kb/s\r\nChannel(s)                               : 2 channels\r\nChannel positions                        : Front: L R\r\nSampling rate                            : 48.0 kHz\r\nFrame rate                               : 31.250 FPS (1536 spf)\r\nBit depth                                : 32 bits\r\nCompression mode                         : Lossy\r\nStream size                              : 81.9 MiB (18%)\r\nWriting library                          : Lavc57.24.102 ac3\r\nDefault                                  : Yes\r\nForced                                   : No\r\nDURATION                                 : 00:59:36.767000000\r\n\r\n__--__--__--__--__--__--__--__--__--__--__--__--__--\r\n\r\n\r\nIMDb: http://www.imdb.com/title/tt2401256\r\n\r\n\r\n__--__--__--__--__--__--__--__--__--__--__--__--__--\r\n\r\n\r\nAfter adding torrent with magnet link,\r\n\r\nplease add this  following trackers list to the torrent for better seeds.\r\n\r\n\r\nudp://tracker.coppersurfer.tk:6969/announce\r\n\r\nudp://tracker.opentrackr.org:1337/announce\r\n \nhttp://tracker.baravik.org:6970/announce\r\n \nhttp://tracker2.wasabii.com.tw:6969/announce\r\n\r\nudp://9.rarbg.me:2710/announce\r\n\r\n\r\n__--__--__--__--__--__--__--__--__--__--__--__--__--\r\n\r\n\r\nEnjoy!","torrent":{"xt":"urn:btih:d97dbc1a025e56a6b67456701e61eb9e0b53752e","amp;dn":"The+Night+Of+Part+5+720p+HDTV+HEVC+2CH+x265","amp;tr":["udp%3A%2F%2Ftracker.leechers-paradise.org%3A6969","udp%3A%2F%2Fzer0day.ch%3A1337","udp%3A%2F%2Fopen.demonii.com%3A1337","udp%3A%2F%2Ftracker.coppersurfer.tk%3A6969","udp%3A%2F%2Fexodus.desync.com%3A6969"],"infoHash":"d97dbc1a025e56a6b67456701e61eb9e0b53752e","infoHashBuffer":{"type":"Buffer","data":[217,125,188,26,2,94,86,166,182,116,86,112,30,97,235,158,11,83,117,46]},"announce":[],"urlList":[]}}